<?xml version="1.0" standalone="no"?>
<!DOCTYPE svg PUBLIC "-//W3C//DTD SVG 20010904//EN"
 "http://www.w3.org/TR/2001/REC-SVG-20010904/DTD/svg10.dtd">
<svg version="1.0" xmlns="http://www.w3.org/2000/svg"
 width="1024.000000pt" height="768.000000pt" viewBox="0 0 1024.000000 768.000000"
 preserveAspectRatio="xMidYMid meet">

<g transform="translate(0.000000,768.000000) scale(0.100000,-0.100000)"
fill="#000000" stroke="none">
<path d="M1909 6888 c31 -79 116 -259 152 -320 251 -435 689 -765 1168 -879
232 -56 176 -53 1271 -54 1074 -1 1060 -1 1460 -51 736 -92 1376 -307 1800
-603 132 -92 209 -159 388 -335 100 -99 182 -176 182 -171 0 23 -108 409 -150
535 -217 654 -600 1144 -1156 1481 -389 236 -853 374 -1382 409 -96 6 -833 10
-1948 10 l-1794 0 9 -22z"/>
<path d="M4723 5176 c-27 -18 -49 -42 -65 -74 l-23 -47 0 -1215 0 -1216 26
-49 c35 -70 84 -97 165 -93 39 3 78 13 110 28 78 39 1604 1084 1651 1131 63
62 88 120 88 204 0 58 -5 79 -29 122 -15 28 -42 65 -60 81 -42 40 -1577 1088
-1640 1120 -33 17 -72 26 -115 29 -57 4 -71 1 -108 -21z"/>
<path d="M6650 5175 c0 -3 41 -70 90 -150 198 -320 278 -536 321 -875 17 -127
17 -500 1 -620 -60 -437 -205 -754 -461 -1011 -173 -173 -340 -276 -573 -354
-255 -84 -394 -97 -1068 -93 l-525 3 -6 360 c-6 377 -10 409 -59 554 -99 293
-305 533 -578 674 -177 91 -307 124 -519 134 l-133 6 0 -1511 0 -1512 1213 0
c727 0 1260 4 1332 10 966 81 1740 529 2198 1271 207 336 346 716 418 1144 18
110 20 154 16 285 -10 247 -52 422 -156 635 -211 431 -615 740 -1271 970 -74
26 -159 55 -187 65 -29 11 -53 17 -53 15z"/>
</g>
</svg>
